<svg viewBox="0 0 154 79" fill="none" xmlns="http://www.w3.org/2000/svg"><path d="M114.5 2h-75C18.79 2 2 18.79 2 39.5S18.79 77 39.5 77h75c20.711 0 37.5-16.79 37.5-37.5S135.211 2 114.5 2Z" fill="#fff" stroke="#333" stroke-width="4"/><path d="M37 64c-13.255 0-24-10.745-24-24s10.745-24 24-24 24 10.745 24 24-10.745 24-24 24Zm81.678-24.893A16.62 16.62 0 0 1 115.076 21a18.36 18.36 0 0 0-9.453 5.05c-7.21 7.21-7.21 18.9 0 26.11 7.212 7.211 18.9 7.21 26.111 0a18.356 18.356 0 0 0 5.05-9.451 16.624 16.624 0 0 1-18.106-3.602Z" fill="#333"/></svg>