<svg viewBox="0 0 154 79" fill="none" xmlns="http://www.w3.org/2000/svg"><path d="M39.5 4h75V0h-75v4Zm75 0C134.106 4 150 19.894 150 39.5h4C154 17.685 136.315 0 114.5 0v4ZM150 39.5c0 19.606-15.894 35.5-35.5 35.5v4c21.815 0 39.5-17.685 39.5-39.5h-4ZM114.5 75h-75v4h75v-4Zm-75 0C19.894 75 4 59.106 4 39.5H0C0 61.315 17.685 79 39.5 79v-4ZM4 39.5C4 19.894 19.894 4 39.5 4V0C17.685 0 0 17.685 0 39.5h4Z" fill="#F5F5F5" fill-opacity=".9"/><path d="M117 63c13.255 0 24-10.745 24-24s-10.745-24-24-24-24 10.745-24 24 10.745 24 24 24ZM26.349 39.5a9.166 9.166 0 0 0 9.155 9.155 9.166 9.166 0 0 0 9.154-9.155 9.166 9.166 0 0 0-9.154-9.155 9.166 9.166 0 0 0-9.155 9.155Zm7.323 12.799h3.656v5.485h-3.656v-5.485Zm0-31.083h3.656v5.485h-3.656v-5.485ZM17.216 37.672h5.485v3.656h-5.485v-3.656Zm31.083 0h5.485v3.656h-5.485v-3.656Zm-24.433 16.05-2.585-2.586 3.878-3.878 2.585 2.585-3.878 3.878Zm19.39-24.563 3.88-3.88 2.585 2.585-3.88 3.88-2.585-2.585Zm-18.097 2.587-3.878-3.88 2.587-2.585 3.876 3.88-2.585 2.585Zm24.562 19.39-2.585 2.585-3.88-3.88 2.585-2.585 3.88 3.88Z" fill="#F5F5F5"/></svg>